<svg width="28" height="26" viewBox="0 0 28 26" fill="none" xmlns="http://www.w3.org/2000/svg">
<path d="M18.992 25.472C17.7867 25.472 16.6987 25.3067 15.728 24.976C14.7573 24.6453 13.8667 24.1333 13.056 23.44C12.2453 22.736 11.4667 21.8347 10.72 20.736C9.96267 19.5947 9.328 18.496 8.816 17.44C8.304 16.3733 7.92 15.3227 7.664 14.288C7.408 13.2427 7.28 12.192 7.28 11.136C7.28 9.888 7.53067 8.77333 8.032 7.792C8.53333 6.81067 9.248 6.03733 10.176 5.472C11.1147 4.896 12.2347 4.608 13.536 4.608C14.528 4.608 15.3973 4.8 16.144 5.184C16.8907 5.568 17.472 6.096 17.888 6.768C18.3147 7.42933 18.528 8.19733 18.528 9.072C18.528 10.1067 18.2453 11.0133 17.68 11.792C17.1147 12.56 16.2987 13.1733 15.232 13.632C14.1653 14.0907 12.8907 14.368 11.408 14.464L11.232 13.728C11.9787 13.632 12.624 13.3813 13.168 12.976C13.712 12.5707 14.1333 12.0107 14.432 11.296C14.7307 10.5813 14.88 9.728 14.88 8.736C14.88 7.82933 14.736 7.09867 14.448 6.544C14.1707 5.97867 13.7867 5.696 13.296 5.696C12.6667 5.696 12.144 6.032 11.728 6.704C11.312 7.376 11.104 8.27734 11.104 9.408C11.104 10.368 11.2267 11.3227 11.472 12.272C11.728 13.2107 12.1013 14.176 12.592 15.168C13.0933 16.1493 13.712 17.1733 14.448 18.24C15.3227 19.52 16.1067 20.544 16.8 21.312C17.4933 22.08 18.16 22.6293 18.8 22.96C19.4507 23.2907 20.144 23.456 20.88 23.456C21.8827 23.456 22.784 23.2053 23.584 22.704C24.3947 22.192 25.0293 21.4133 25.488 20.368C25.9573 19.312 26.192 17.984 26.192 16.384C26.192 14.4747 25.8453 12.5813 25.152 10.704C24.4587 8.82667 23.3653 7.12533 21.872 5.6C20.5067 4.20267 18.9227 3.12 17.12 2.352C15.3173 1.57333 13.344 1.184 11.2 1.184C9.45067 1.184 8.01067 1.408 6.88 1.856C5.76 2.304 4.93333 2.90133 4.4 3.648C3.86667 4.39467 3.6 5.22667 3.6 6.144C3.6 6.57067 3.65333 6.93867 3.76 7.248C3.86667 7.55733 3.99467 7.84534 4.144 8.112C4.29333 8.368 4.42133 8.65067 4.528 8.96C4.63467 9.25867 4.688 9.62133 4.688 10.048C4.688 10.6347 4.48533 11.1147 4.08 11.488C3.68533 11.8613 3.17867 12.048 2.56 12.048C1.792 12.048 1.18933 11.728 0.752 11.088C0.325333 10.448 0.112 9.616 0.112 8.592C0.112 6.85333 0.549333 5.344 1.424 4.064C2.29867 2.77333 3.568 1.776 5.232 1.072C6.896 0.357333 8.91733 0 11.296 0C13.5787 0 15.7013 0.405334 17.664 1.216C19.6267 2.02667 21.36 3.184 22.864 4.688C24.432 6.26667 25.6107 8.05334 26.4 10.048C27.1893 12.0427 27.584 14.1387 27.584 16.336C27.584 18.2773 27.2373 19.9307 26.544 21.296C25.8613 22.6613 24.88 23.7013 23.6 24.416C22.32 25.12 20.784 25.472 18.992 25.472ZM16.16 21.376C16.8533 20.896 17.4133 20.4267 17.84 19.968C18.2667 19.4987 18.576 19.04 18.768 18.592C18.96 18.144 19.056 17.7173 19.056 17.312C19.056 16.9173 19.008 16.5867 18.912 16.32C18.8267 16.0427 18.736 15.7867 18.64 15.552C18.5547 15.3067 18.512 15.0293 18.512 14.72C18.512 14.144 18.6933 13.6533 19.056 13.248C19.4293 12.8427 19.904 12.64 20.48 12.64C21.0773 12.64 21.552 12.8693 21.904 13.328C22.256 13.776 22.432 14.4053 22.432 15.216C22.432 16.5173 21.9573 17.76 21.008 18.944C20.0693 20.1173 18.608 21.1573 16.624 22.064L16.16 21.376ZM8.32 14.832C7.53067 14.9493 6.86933 15.2107 6.336 15.616C5.81333 16.0213 5.424 16.5387 5.168 17.168C4.912 17.7867 4.784 18.4747 4.784 19.232C4.784 20.5013 5.12533 21.52 5.808 22.288C6.49067 23.0453 7.38667 23.424 8.496 23.424C9.24267 23.424 9.904 23.3013 10.48 23.056C11.056 22.8 11.6213 22.4427 12.176 21.984L12.8 22.88C12.2987 23.36 11.7333 23.7813 11.104 24.144C10.4747 24.5067 9.76 24.784 8.96 24.976C8.16 25.1787 7.248 25.28 6.224 25.28C4.25067 25.28 2.72 24.8267 1.632 23.92C0.544 23.0133 0 21.7387 0 20.096C0 18.9547 0.314667 17.9413 0.944 17.056C1.584 16.16 2.52267 15.4453 3.76 14.912C4.99733 14.368 6.51733 14.0427 8.32 13.936V14.832Z" fill="#BC9061"/>
</svg>
