
<svg width="54" height="54" viewBox="18 20 64 64" fill="none" xmlns="http://www.w3.org/2000/svg">
<path d="M23.9999 24C22.4086 24 20.8825 24.6321 19.7573 25.7574C18.6321 26.8826 17.9999 28.4087 17.9999 30V44.652C17.9999 46.2433 18.6321 47.7694 19.7573 48.8946C20.8825 50.0199 22.4086 50.652 23.9999 50.652H32.3279C32.3279 52.758 32.2019 54.87 31.9559 56.976C31.5839 59.208 30.9599 61.194 30.0959 62.928C29.2259 64.668 28.1099 66.03 26.7419 67.026C25.3799 68.142 23.6459 68.7 21.5339 68.7V78C25.0079 78 28.0439 77.256 30.6539 75.768C33.2412 74.2951 35.4657 72.2613 37.1639 69.816C38.8684 67.1201 40.1247 64.1658 40.8839 61.068C41.649 57.6494 42.0234 54.1551 41.9999 50.652V30C41.9999 28.4087 41.3678 26.8826 40.2426 25.7574C39.1174 24.6321 37.5912 24 35.9999 24H23.9999ZM59.9999 24C58.4086 24 56.8825 24.6321 55.7573 25.7574C54.6321 26.8826 53.9999 28.4087 53.9999 30V44.652C53.9999 46.2433 54.6321 47.7694 55.7573 48.8946C56.8825 50.0199 58.4086 50.652 59.9999 50.652H68.3279C68.3279 52.758 68.2019 54.87 67.9559 56.976C67.5839 59.208 66.9599 61.194 66.0959 62.928C65.2259 64.668 64.1099 66.03 62.7419 67.026C61.3799 68.142 59.6459 68.7 57.5339 68.7V78C61.0079 78 64.0439 77.256 66.6539 75.768C69.2412 74.2951 71.4657 72.2613 73.1639 69.816C74.8684 67.1201 76.1247 64.1658 76.8839 61.068C77.649 57.6494 78.0234 54.1551 77.9999 50.652V30C77.9999 28.4087 77.3678 26.8826 76.2426 25.7574C75.1174 24.6321 73.5912 24 71.9999 24H59.9999Z" fill="#BC9061"/>
</svg>
