<svg width="54" height="54" viewBox="0 0 24 24" fill="none" xmlns="http://www.w3.org/2000/svg">
<path fill-rule="evenodd" clip-rule="evenodd" d="M6.96912 2.46888C6.89928 2.53854 6.84386 2.62131 6.80605 2.71243C6.76824 2.80354 6.74878 2.90122 6.74878 2.99988C6.74878 3.09853 6.76824 3.19621 6.80605 3.28733C6.84386 3.37844 6.89928 3.46121 6.96912 3.53088L15.4396 11.9999L6.96912 20.4689C6.82829 20.6097 6.74918 20.8007 6.74918 20.9999C6.74918 21.199 6.82829 21.39 6.96912 21.5309C7.10995 21.6717 7.30096 21.7508 7.50012 21.7508C7.69929 21.7508 7.89029 21.6717 8.03112 21.5309L17.0311 12.5309C17.101 12.4612 17.1564 12.3784 17.1942 12.2873C17.232 12.1962 17.2515 12.0985 17.2515 11.9999C17.2515 11.9012 17.232 11.8035 17.1942 11.7124C17.1564 11.6213 17.101 11.5385 17.0311 11.4689L8.03112 2.46888C7.96145 2.39903 7.87869 2.34362 7.78757 2.30581C7.69646 2.268 7.59877 2.24854 7.50012 2.24854C7.40147 2.24854 7.30379 2.268 7.21267 2.30581C7.12156 2.34362 7.03879 2.39903 6.96912 2.46888Z" fill="#BC9061"/>
</svg>
